<svg width="22" height="22" viewBox="0 0 22 22" fill="none" xmlns="http://www.w3.org/2000/svg">
<path d="M11 21.08C10.7 21.08 10.4 21.01 10.15 20.87C8.28 19.85 4.99 18.77 2.93 18.5L2.64 18.46C1.33 18.3 0.25 17.07 0.25 15.74V3.66001C0.25 2.87001 0.56 2.15001 1.13 1.63001C1.7 1.11001 2.44 0.860008 3.22 0.930008C5.42 1.10001 8.74 2.20001 10.62 3.38001L10.86 3.52001C10.93 3.56001 11.08 3.56001 11.14 3.53001L11.3 3.43001C13.18 2.25001 16.5 1.13001 18.71 0.940008H18.83C19.56 0.870008 20.31 1.13001 20.87 1.65001C21.44 2.17001 21.75 2.89001 21.75 3.68001V15.75C21.75 17.09 20.67 18.31 19.35 18.47L19.02 18.51C16.96 18.78 13.66 19.87 11.83 20.88C11.59 21.02 11.3 21.08 11 21.08ZM2.98 2.42001C2.66 2.42001 2.37 2.53001 2.14 2.74001C1.89 2.97001 1.75 3.30001 1.75 3.66001V15.74C1.75 16.33 2.26 16.9 2.83 16.98L3.13 17.02C5.38 17.32 8.83 18.45 10.83 19.54C10.92 19.58 11.05 19.59 11.1 19.57C13.1 18.46 16.57 17.32 18.83 17.02L19.17 16.98C19.74 16.91 20.25 16.33 20.25 15.74V3.67001C20.25 3.30001 20.11 2.98001 19.86 2.74001C19.6 2.51001 19.27 2.40001 18.9 2.42001H18.78C16.87 2.59001 13.79 3.62001 12.11 4.67001L11.95 4.78001C11.4 5.12001 10.62 5.12001 10.09 4.79001L9.85 4.65001C8.14 3.60001 5.06 2.58001 3.1 2.42001H2.98Z" fill="#004390"/>
</svg>
