<svg width="200" height="200" viewBox="0 0 200 200" fill="none" xmlns="http://www.w3.org/2000/svg">
<g clip-path="url(#clip0_783_19971)">
<mask id="mask0_783_19971" style="mask-type:luminance" maskUnits="userSpaceOnUse" x="0" y="0" width="200" height="200">
<path d="M200 0H0V200H200V0Z" fill="white"/>
</mask>
<g mask="url(#mask0_783_19971)">
<path d="M100 179.34C115.823 179.34 131.29 174.648 144.446 165.857C157.602 157.067 167.855 144.573 173.91 129.955C179.965 115.336 181.55 99.2511 178.463 83.7327C175.376 68.2142 167.757 53.9595 156.569 42.7713C145.38 31.5831 131.126 23.9639 115.607 20.8771C100.089 17.7902 84.0034 19.3745 69.3853 25.4295C54.7672 31.4845 42.2729 41.7383 33.4824 54.8943C24.6919 68.0502 20 83.5174 20 99.3399C20 120.557 28.4285 140.906 43.4315 155.908C58.4344 170.911 78.7827 179.34 100 179.34Z" fill="url(#paint0_linear_783_19971)"/>
<path d="M131.7 42.3799H69.9998C64.1125 42.3799 59.3398 47.1525 59.3398 53.0399V135.08C59.3398 140.967 64.1125 145.74 69.9998 145.74H131.7C137.587 145.74 142.36 140.967 142.36 135.08V53.0399C142.36 47.1525 137.587 42.3799 131.7 42.3799Z" fill="white"/>
<path d="M96.7397 55.7H69.9197C68.1192 55.7 66.6597 57.1595 66.6597 58.9599V58.9799C66.6597 60.7804 68.1192 62.24 69.9197 62.24H96.7397C98.5401 62.24 99.9997 60.7804 99.9997 58.9799V58.9599C99.9997 57.1595 98.5401 55.7 96.7397 55.7Z" fill="#011625"/>
<path d="M130.06 74.24H69.9197C68.1192 74.24 66.6597 75.6995 66.6597 77.5V77.52C66.6597 79.3204 68.1192 80.78 69.9197 80.78H130.06C131.86 80.78 133.32 79.3204 133.32 77.52V77.5C133.32 75.6995 131.86 74.24 130.06 74.24Z" fill="#D5D5D5"/>
<path d="M130.06 92.7798H69.9197C68.1192 92.7798 66.6597 94.2393 66.6597 96.0398V96.0598C66.6597 97.8602 68.1192 99.3198 69.9197 99.3198H130.06C131.86 99.3198 133.32 97.8602 133.32 96.0598V96.0398C133.32 94.2393 131.86 92.7798 130.06 92.7798Z" fill="#D5D5D5"/>
<path d="M130.06 111.3H69.9197C68.1192 111.3 66.6597 112.759 66.6597 114.56V114.58C66.6597 116.38 68.1192 117.84 69.9197 117.84H130.06C131.86 117.84 133.32 116.38 133.32 114.58V114.56C133.32 112.759 131.86 111.3 130.06 111.3Z" fill="#D5D5D5"/>
<path d="M69.9997 129.84H130C130.43 129.837 130.856 129.92 131.253 130.082C131.651 130.245 132.013 130.485 132.318 130.788C132.623 131.091 132.865 131.451 133.03 131.848C133.195 132.245 133.28 132.67 133.28 133.1C133.28 133.97 132.934 134.804 132.319 135.419C131.704 136.034 130.87 136.38 130 136.38H69.9997C69.1298 136.38 68.2955 136.034 67.6804 135.419C67.0653 134.804 66.7197 133.97 66.7197 133.1C66.7197 132.67 66.8047 132.245 66.9698 131.848C67.1349 131.451 67.3768 131.091 67.6816 130.788C67.9865 130.485 68.3482 130.245 68.746 130.082C69.1439 129.92 69.5699 129.837 69.9997 129.84Z" fill="#D5D5D5"/>
<path d="M192.1 30.9399H152C151.08 30.9661 150.208 31.3553 149.575 32.0224C148.942 32.6895 148.598 33.5803 148.62 34.4999V54.3199C148.598 55.2396 148.942 56.1303 149.575 56.7975C150.208 57.4646 151.08 57.8538 152 57.8799H192C192.919 57.8538 193.791 57.4646 194.424 56.7975C195.058 56.1303 195.401 55.2396 195.38 54.3199V34.4999C195.402 33.5969 195.072 32.7206 194.46 32.0562C193.848 31.3919 193.001 30.9916 192.1 30.9399Z" fill="white"/>
<path d="M158.66 48.6599C159.451 48.6599 160.224 48.4253 160.882 47.9858C161.54 47.5463 162.052 46.9216 162.355 46.1906C162.658 45.4597 162.737 44.6555 162.583 43.8796C162.428 43.1036 162.048 42.3909 161.488 41.8315C160.929 41.2721 160.216 40.8911 159.44 40.7368C158.664 40.5824 157.86 40.6616 157.129 40.9644C156.398 41.2671 155.773 41.7798 155.334 42.4376C154.894 43.0954 154.66 43.8688 154.66 44.6599C154.66 45.7208 155.081 46.7382 155.831 47.4883C156.581 48.2385 157.599 48.6599 158.66 48.6599Z" fill="#CCC6D9"/>
<path d="M172 40.6599H185.34C186.401 40.6599 187.418 41.0813 188.168 41.8315C188.919 42.5816 189.34 43.599 189.34 44.6599C189.34 45.7208 188.919 46.7382 188.168 47.4883C187.418 48.2385 186.401 48.6599 185.34 48.6599H172C170.939 48.6599 169.922 48.2385 169.172 47.4883C168.421 46.7382 168 45.7208 168 44.6599C168 43.599 168.421 42.5816 169.172 41.8315C169.922 41.0813 170.939 40.6599 172 40.6599Z" fill="#D5D5D5"/>
<path fill-rule="evenodd" clip-rule="evenodd" d="M123.4 150.38C131.665 150.397 139.746 147.938 146.6 143.32L173.74 169.32L183.58 157.9L157.4 132.82C162.806 125.201 165.496 115.987 165.038 106.657C164.58 97.3262 161.001 88.42 154.875 81.3673C148.749 74.3146 140.431 69.5244 131.256 67.7654C122.082 66.0064 112.582 67.3805 104.282 71.6673C95.9817 75.9541 89.3623 82.9049 85.4859 91.4045C81.6094 99.904 80.7007 109.459 82.9056 118.537C85.1105 127.615 90.3011 135.689 97.6444 141.464C104.988 147.238 114.058 150.378 123.4 150.38ZM158.94 108.7C158.944 115.679 156.878 122.503 153.003 128.308C149.127 134.113 143.618 138.638 137.17 141.31C130.723 143.983 123.628 144.684 116.782 143.323C109.937 141.962 103.648 138.602 98.7132 133.667C93.778 128.731 90.4175 122.443 89.0569 115.598C87.6962 108.752 88.3966 101.657 91.0693 95.2095C93.742 88.7621 98.2671 83.2523 104.072 79.3772C109.877 75.5022 116.701 73.4359 123.68 73.4398C133.031 73.4398 142 77.1547 148.613 83.7672C155.225 90.3798 158.94 99.3483 158.94 108.7Z" fill="#CCC6D9"/>
<path d="M123.66 144.66C130.766 144.597 137.695 142.432 143.572 138.438C149.45 134.444 154.015 128.8 156.69 122.216C159.366 115.633 160.034 108.405 158.609 101.443C157.184 94.4805 153.73 88.0959 148.683 83.0932C143.636 78.0904 137.221 74.6934 130.246 73.3301C123.272 71.9668 116.05 72.6981 109.49 75.432C102.931 78.1659 97.3272 82.7801 93.3854 88.6931C89.4437 94.6061 87.3401 101.554 87.3398 108.66C87.3608 113.409 88.3169 118.107 90.1535 122.486C91.9901 126.865 94.6713 130.839 98.0439 134.182C101.417 137.525 105.415 140.171 109.81 141.969C114.205 143.767 118.911 144.681 123.66 144.66Z" fill="white" fill-opacity="0.3"/>
<path d="M130 108.66L138.74 99.9998C139.565 99.1408 140.018 97.9908 140 96.7998C139.983 95.6061 139.502 94.4657 138.66 93.6198C137.795 92.7863 136.641 92.3206 135.44 92.3206C134.239 92.3206 133.084 92.7863 132.22 93.6198L123.42 102.38L114.62 93.6198C114.199 93.1658 113.688 92.8047 113.12 92.5598C112.558 92.3137 111.953 92.1844 111.34 92.1798C110.723 92.1724 110.111 92.288 109.54 92.5198C108.97 92.7451 108.452 93.0855 108.02 93.5198C107.582 93.9533 107.235 94.4702 107 95.0398C106.778 95.6071 106.662 96.2106 106.66 96.8198C106.712 98.0258 107.228 99.1652 108.1 99.9998L116.92 108.76L108.1 117.52C107.656 117.945 107.303 118.455 107.06 119.02C106.809 119.574 106.673 120.172 106.66 120.78C106.662 121.396 106.777 122.006 107 122.58C107.245 123.11 107.583 123.591 108 124C108.443 124.421 108.958 124.759 109.52 125C110.094 125.222 110.704 125.337 111.32 125.34C111.934 125.328 112.54 125.192 113.1 124.94C113.667 124.702 114.178 124.347 114.6 123.9L123.42 115.14L132.24 124C132.896 124.621 133.721 125.034 134.612 125.189C135.502 125.344 136.418 125.233 137.246 124.871C138.074 124.508 138.776 123.909 139.266 123.15C139.756 122.39 140.011 121.503 140 120.6C140.033 119.431 139.618 118.293 138.84 117.42L130 108.66Z" fill="#FF4040"/>
<path d="M173.74 169.22L183.58 157.82L185.06 159.22C186.501 160.635 187.354 162.543 187.447 164.562C187.54 166.58 186.866 168.558 185.56 170.1C184.935 170.844 184.164 171.451 183.295 171.884C182.426 172.317 181.477 172.567 180.507 172.617C179.537 172.668 178.567 172.518 177.658 172.178C176.748 171.838 175.918 171.314 175.22 170.64L173.74 169.22Z" fill="#E1DCEB"/>
<path fill-rule="evenodd" clip-rule="evenodd" d="M37.5398 60.7799C37.5288 59.8423 37.408 58.9093 37.1798 57.9999C36.3398 54.6199 32.5998 52.4399 28.6398 51.9999C24.6798 51.5599 20.5398 52.6399 18.9398 55.5999C18.5403 56.1902 18.2684 56.8574 18.1416 57.5588C18.0148 58.2602 18.0358 58.9804 18.2034 59.6732C18.3709 60.366 18.6813 61.0162 19.1146 61.5822C19.5479 62.1481 20.0947 62.6174 20.7198 62.9599C24.296 64.9992 28.5102 65.6135 32.5198 64.6799C33.7564 64.2647 34.9598 63.7565 36.1198 63.1599C35.1128 67.3199 32.8505 71.0695 29.6398 73.8999C22.515 80.2874 14.1659 85.1594 5.09977 88.2199C4.94035 88.2788 4.80978 88.3969 4.73527 88.5496C4.66076 88.7024 4.64804 88.878 4.69977 89.0399C4.7201 89.1207 4.75705 89.1964 4.80825 89.2622C4.85946 89.3279 4.92381 89.3823 4.99719 89.4218C5.07057 89.4613 5.15139 89.4851 5.23447 89.4917C5.31756 89.4982 5.4011 89.4874 5.47977 89.4599C14.739 86.288 23.253 81.2586 30.4998 74.6799C34.1752 71.474 36.6391 67.104 37.4798 62.2999C46.0798 57.4999 53.1398 48.7799 59.1798 41.4599C59.295 41.3344 59.359 41.1702 59.359 40.9999C59.359 40.8295 59.295 40.6654 59.1798 40.5399C59.1221 40.4818 59.0536 40.4358 58.9781 40.4043C58.9026 40.3729 58.8216 40.3567 58.7398 40.3567C58.658 40.3567 58.577 40.3729 58.5015 40.4043C58.4259 40.4358 58.3574 40.4818 58.2998 40.5399C52.4398 47.6399 45.7198 55.9999 37.5398 60.7799ZM36.2998 61.4799C36.3574 60.3844 36.2564 59.2864 35.9998 58.2199C35.2798 55.2999 31.9998 53.5599 28.5198 53.1199C26.4898 52.8109 24.4139 53.0669 22.5198 53.8599C21.4745 54.2887 20.5922 55.0379 19.9998 55.9999C19.6873 56.4907 19.4767 57.0392 19.3805 57.613C19.2843 58.1868 19.3045 58.774 19.4398 59.3399C19.8142 60.3185 20.5226 61.1332 21.4398 61.6399C24.6986 63.5046 28.5394 64.0757 32.1998 63.2399C33.6076 62.7541 34.9779 62.1659 36.2998 61.4799Z" fill="#011625"/>
<path d="M190 126.66C192.209 126.66 194 124.869 194 122.66C194 120.451 192.209 118.66 190 118.66C187.791 118.66 186 120.451 186 122.66C186 124.869 187.791 126.66 190 126.66Z" fill="#004390"/>
<path fill-rule="evenodd" clip-rule="evenodd" d="M38.9197 150.26C39.6515 150.008 40.3298 149.621 40.9197 149.12C41.5449 148.531 41.9535 147.749 42.0797 146.9C42.3197 145.82 42.4197 144.7 42.7197 143.62C42.7436 143.498 42.7912 143.383 42.8599 143.28C42.9285 143.177 43.0168 143.089 43.1197 143.02C43.2106 142.944 43.3159 142.887 43.4293 142.853C43.5427 142.818 43.6619 142.807 43.7797 142.82C43.9579 142.826 44.1309 142.882 44.2793 142.981C44.4276 143.079 44.5455 143.218 44.6197 143.38C44.6678 143.474 44.7015 143.575 44.7197 143.68C44.7197 143.68 44.7197 144.1 44.7197 144.22C44.7197 144.34 44.8197 144.84 44.8797 145.16C44.9823 146.143 45.2459 147.102 45.6597 148C46.0091 149.034 46.7191 149.907 47.6597 150.46C48.6504 150.763 49.709 150.763 50.6997 150.46H51.0597C51.3299 150.419 51.6052 150.487 51.826 150.648C52.0468 150.809 52.1954 151.05 52.2397 151.32C52.2941 151.592 52.2414 151.876 52.0924 152.11C51.9434 152.345 51.7096 152.513 51.4397 152.58H51.1197C49.2694 153.268 47.6437 154.451 46.4197 156C46.0797 156.44 45.5597 157.62 45.0397 158.36C44.7568 158.82 44.347 159.188 43.8597 159.42C43.6587 159.488 43.4407 159.488 43.2397 159.42C42.9954 159.357 42.7822 159.208 42.6397 159C42.5389 158.849 42.4707 158.679 42.4397 158.5C42.4292 158.347 42.4292 158.193 42.4397 158.04C42.3197 157.66 42.1997 157.28 42.0997 156.88C41.8579 156.047 41.4497 155.271 40.8997 154.6C40.4679 153.925 39.8495 153.39 39.1197 153.06C39.0197 153.06 38.1997 152.82 37.8997 152.7C37.7412 152.638 37.5972 152.543 37.4768 152.423C37.3564 152.302 37.262 152.158 37.1997 152C37.0965 151.782 37.055 151.54 37.0797 151.3C37.1141 151.016 37.2488 150.753 37.4597 150.56C37.6377 150.409 37.851 150.306 38.0797 150.26C38.3595 150.246 38.6399 150.246 38.9197 150.26ZM43.6997 148.76L43.8197 149.02C44.3909 150.545 45.5205 151.796 46.9797 152.52C46.1943 153.105 45.4765 153.776 44.8397 154.52C44.5148 154.986 44.2336 155.482 43.9997 156C43.6647 155.024 43.1788 154.106 42.5597 153.28C42.1387 152.628 41.5953 152.065 40.9597 151.62C41.4364 151.359 41.8854 151.051 42.2997 150.7C42.905 150.166 43.3834 149.503 43.6997 148.76Z" fill="#004390"/>
</g>
</g>
<defs>
<linearGradient id="paint0_linear_783_19971" x1="99.38" y1="-6.72012" x2="101.02" y2="274.24" gradientUnits="userSpaceOnUse">
<stop stop-color="#F2F2F2"/>
<stop offset="1" stop-color="#EFEFEF"/>
</linearGradient>
<clipPath id="clip0_783_19971">
<rect width="200" height="200" fill="white"/>
</clipPath>
</defs>
</svg>
