<svg width="22" height="22" viewBox="0 0 22 22" fill="none" xmlns="http://www.w3.org/2000/svg">
<path d="M15.41 2.99999C17.35 2.99999 18.91 4.56999 18.91 6.49999C18.91 8.38999 17.41 9.92999 15.54 9.99999C15.4536 9.98999 15.3664 9.98999 15.28 9.99999M17.34 19C18.06 18.85 18.74 18.56 19.3 18.13C20.86 16.96 20.86 15.03 19.3 13.86C18.75 13.44 18.08 13.16 17.37 13M8.15997 9.86999C8.05997 9.85999 7.93997 9.85999 7.82997 9.86999C6.68217 9.83102 5.59461 9.34683 4.7976 8.51995C4.00059 7.69307 3.55671 6.58844 3.55997 5.43999C3.55997 2.98999 5.53997 0.99999 7.99997 0.99999C9.17621 0.978773 10.3127 1.42568 11.1594 2.2424C12.0061 3.05912 12.4938 4.17875 12.515 5.35499C12.5362 6.53123 12.0893 7.66771 11.2726 8.51444C10.4558 9.36117 9.33621 9.84877 8.15997 9.86999ZM3.15997 13.56C0.739971 15.18 0.739971 17.82 3.15997 19.43C5.90997 21.27 10.42 21.27 13.17 19.43C15.59 17.81 15.59 15.17 13.17 13.56C10.43 11.73 5.91997 11.73 3.15997 13.56Z" stroke="#004390" stroke-width="1.5" stroke-linecap="round" stroke-linejoin="round"/>
</svg>
